<?xml version="1.0" encoding="utf-8"?>
<!-- Generator: Adobe Illustrator 16.0.0, SVG Export Plug-In . SVG Version: 6.00 Build 0)  -->
<!DOCTYPE svg PUBLIC "-//W3C//DTD SVG 1.1//EN" "http://www.w3.org/Graphics/SVG/1.1/DTD/svg11.dtd">
<svg version="1.1" id="Capa_1" xmlns="http://www.w3.org/2000/svg" xmlns:xlink="http://www.w3.org/1999/xlink" x="0px" y="0px"
	 width="370.5px" height="359px" viewBox="0 0 370.5 359" enable-background="new 0 0 370.5 359" xml:space="preserve">
<g>
	
		<rect x="64.67" y="58.919" transform="matrix(0.7071 0.7071 -0.7071 0.7071 181.1842 -78.4174)" fill-rule="evenodd" clip-rule="evenodd" fill="#014AAF" width="241.161" height="241.161"/>
	<path fill-rule="evenodd" clip-rule="evenodd" fill="#FFFFFF" d="M213.377,210.722c0-1.351,0-2.297,0-3.511
		c1.481-0.105,2.899-0.252,4.319-0.299c4.346-0.143,6.007-1.603,6.031-5.99c0.06-11.363-0.037-22.727-0.074-34.091
		c-0.018-5.342-0.028-10.685-0.066-16.026c-0.034-4.883-1.772-6.589-6.647-6.585c-1.245,0-2.49,0-3.85,0c0-1.475,0-2.615,0-4.209
		c12.994,0,25.981-0.142,38.964,0.047c9.564,0.139,18.832,8.689,19.062,17.141c0.193,7.135-4.508,13.294-11.419,14.927
		c-1.597,0.378-3.21,0.681-5.203,1.099c2.721,0.822,5.126,1.466,7.474,2.273c13.629,4.688,15.741,21.379,4.307,29.874
		c-4.481,3.329-9.438,5.228-15.088,5.233c-11.851,0.011-23.701,0.075-35.552,0.117C214.969,210.725,214.305,210.722,213.377,210.722
		z M239.125,175.737c0,9.052-0.132,17.862,0.154,26.657c0.039,1.196,1.999,3.014,3.363,3.35c3.748,0.923,7.32,0.124,10.135-2.867
		c4.355-4.628,4.833-10.218,3.784-16.054c-1.266-7.041-4.58-10.146-11.559-11.051C243.193,175.538,241.328,175.737,239.125,175.737z
		 M238.853,145.171c0,8.557-0.027,17.168,0.071,25.778c0.006,0.498,1.01,1.384,1.59,1.418c8.961,0.521,14.358-4.358,14.86-13.31
		C255.911,149.45,248.32,142.958,238.853,145.171z"/>
	<path fill-rule="evenodd" clip-rule="evenodd" fill="#FFFFFF" d="M156.32,249.964c-1.552,1.156-3.107,1.85-3.974,3.043
		c-3.124,4.298-5.997,8.779-9.015,13.156c-0.552,0.8-1.584,2.142-1.976,2.008c-0.995-0.34-2.231-1.229-2.517-2.159
		c-0.903-2.94-1.48-5.989-2.065-9.019c-1.236-6.407,3.568-10.079,6.804-14.352c2.135-2.818,4.838-5.206,7.283-7.79
		c0.466-0.492,0.864-1.063,1.382-1.491c3.571-2.948,5.643-2.486,7.601,1.713c1.372,2.942,2.583,5.963,4.052,8.854
		c0.953,1.876,2.06,3.749,3.47,5.281c0.533,0.579,2.56,0.692,3.137,0.169c2.783-2.521,5.588-5.117,7.839-8.099
		c2.362-3.128,4.171-6.686,6.094-10.127c1.547-2.769,2.896-3.312,5.067-1.097c1.296,1.322,2.123,3.363,2.56,5.223
		c1.417,6.022,2.27,12.309,8.777,15.341c4.307,2.006,8.76,1.43,13.066,0.065c5.153-1.633,10.139-3.836,15.344-5.248
		c1.893-0.514,4.339,0.219,6.274,1.013c0.906,0.372,2.092,1.92,0.854,3.666c-0.739,1.043-0.718,2.594-1.318,3.774
		c-0.693,1.362-1.424,2.961-2.607,3.777c-6.241,4.302-12.439,8.612-19.808,11.061c-6.852,2.278-18.406,1.098-22.194-8.838
		c-0.789-2.069-1.706-4.104-2.758-6.05c-0.448-0.828-1.396-1.385-2.033-1.984c-3.194,4.44-6.053,8.678-9.209,12.682
		c-1.352,1.715-3.227,3.072-5.028,4.363c-2.858,2.05-6.006,0.977-8.134-3.006c-1.675-3.136-2.911-6.507-4.332-9.777
		C158.156,254.28,157.376,252.435,156.32,249.964z"/>
	<path fill-rule="evenodd" clip-rule="evenodd" fill="#FFFFFF" d="M136.62,144.44c0-1.399,0-2.791,0-4.156
		c7.712,0,15.351,0,23.103,0c0,1.391,0,2.636,0,4.024c-0.672,0-1.414-0.007-2.155,0.001c-4.263,0.044-6.639,2.395-6.641,6.692
		c-0.006,12.147,0.038,24.294,0.042,36.441c0.003,12.424-7.758,21.42-20.137,23.126c-7.245,0.998-14.367,0.047-21.172-2.548
		c-7.929-3.023-12.432-9.979-12.476-18.919c-0.061-12.341-0.009-24.683-0.032-37.023c-0.011-5.965-1.806-7.712-7.825-7.75
		c-0.565-0.004-1.129-0.053-1.855-0.088c0-1.247,0-2.369,0-3.703c11.161,0,22.375,0,33.731,0c0,1.215,0,2.345,0,3.678
		c-0.373,0.037-0.821,0.111-1.272,0.124c-5.989,0.179-7.5,1.722-7.503,7.698c-0.007,13.216-0.008,26.432-0.013,39.647
		c-0.004,10.382,6.161,14.385,15.297,13.92c10.939-0.556,17.211-7.76,17.218-18.769c0.007-11.563-0.244-23.135,0.104-34.688
		C145.202,146.528,142.467,143.851,136.62,144.44z"/>
	<path fill-rule="evenodd" clip-rule="evenodd" fill="#FCFCFC" d="M204.069,206.71c0,1.352,0,2.584,0,3.976
		c-12.047,0-24.053,0-36.224,0c0-1.109,0-2.23,0-3.848c1.37,0,2.776,0.011,4.182-0.002c3.807-0.033,5.991-2.089,5.996-5.897
		c0.024-16.901,0.012-33.803-0.038-50.703c-0.01-3.682-1.413-5.301-5.064-5.902c-1.706-0.28-3.47-0.209-5.289-0.301
		c-0.12-1.098-0.241-2.204-0.397-3.637c12.346,0,24.527,0,36.795,0c0,1.181,0,2.325,0,3.801c-1.717,0-3.358-0.104-4.982,0.021
		c-3.493,0.271-5.525,2.363-5.53,5.863c-0.019,16.702-0.016,33.406,0.074,50.109c0.028,5.252,1.395,6.453,6.659,6.517
		C201.49,206.723,202.729,206.71,204.069,206.71z"/>
	<path fill-rule="evenodd" clip-rule="evenodd" fill="#FFFFFF" d="M185.51,84.605c13.881-0.069,26.115,8.859,30.827,22.373
		c1.58,4.53,2.891,9.067,1.693,13.905c-0.164,0.661-0.702,1.229-1.067,1.841c-0.579-0.433-1.33-0.751-1.705-1.318
		c-1.119-1.692-1.87-3.668-3.157-5.204c-8.165-9.751-18.341-14.685-31.335-13.046c-5.773,0.728-11.067,2.391-15.754,5.914
		c-3.041,2.286-5.153,5.171-6.288,8.788c-0.202,0.643-0.373,1.306-0.663,1.908c-1.429,2.967-4.069,3.335-5.768,0.58
		c-2.656-4.305-2.972-9.151-1.084-13.688c5.313-12.771,15.484-19.364,28.805-21.614c0.956-0.161,1.913-0.345,2.877-0.424
		C183.757,84.549,184.636,84.605,185.51,84.605z"/>
</g>
</svg>
