<?xml version="1.0" standalone="no"?>
<!DOCTYPE svg PUBLIC "-//W3C//DTD SVG 20010904//EN"
 "http://www.w3.org/TR/2001/REC-SVG-20010904/DTD/svg10.dtd">
<svg version="1.0" xmlns="http://www.w3.org/2000/svg"
 width="64.000000pt" height="64.000000pt" viewBox="0 0 64.000000 64.000000"
 preserveAspectRatio="xMidYMid meet">

<g transform="translate(0.000000,64.000000) scale(0.100000,-0.100000)"
fill="#000000" stroke="none">
<path d="M0 320 l0 -320 320 0 320 0 0 320 0 320 -320 0 -320 0 0 -320z m340
170 c11 -6 25 -20 31 -32 10 -19 9 -20 -17 -13 -38 10 -76 8 -85 -6 -4 -8 -9
-7 -14 2 -5 8 2 21 19 36 30 26 39 27 66 13z m-145 -152 c0 -56 2 -63 20 -63
18 0 20 7 20 63 l0 62 102 0 c79 0 105 -3 117 -16 12 -11 13 -20 6 -34 -7 -13
-7 -21 0 -25 14 -9 13 -48 -2 -63 -7 -7 -44 -12 -97 -12 -66 0 -82 3 -73 12
12 12 17 110 6 121 -3 3 -12 3 -20 0 -10 -3 -14 -22 -14 -57 0 -58 -12 -76
-50 -76 -38 0 -50 18 -50 75 0 28 -5 56 -12 63 -9 9 -5 12 18 12 l29 0 0 -62z
m138 -138 c4 -17 11 -19 31 -14 34 8 34 -13 0 -28 -19 -9 -30 -9 -43 -1 -13 8
-22 8 -29 1 -6 -6 -12 -6 -16 1 -4 5 -13 8 -21 4 -19 -7 -19 7 -1 32 12 16 16
17 30 6 13 -11 17 -11 22 3 8 22 21 20 27 -4z"/>
<path d="M334 377 c-9 -25 0 -110 14 -115 9 -3 12 13 12 57 0 57 -14 89 -26
58z"/>
<path d="M400 360 c0 -13 5 -20 13 -17 6 2 12 10 12 17 0 7 -6 15 -12 18 -8 2
-13 -5 -13 -18z"/>
<path d="M400 295 c0 -16 6 -25 15 -25 9 0 15 9 15 25 0 16 -6 25 -15 25 -9 0
-15 -9 -15 -25z"/>
</g>
</svg>
