<?xml version="1.0" encoding="UTF-8" standalone="no"?>
<svg
   version="1.0"
   width="2760.000000pt"
   height="881.000000pt"
   viewBox="0 0 2760.000000 881.000000"
   preserveAspectRatio="xMidYMid meet"
   id="svg34"
   sodipodi:docname="338686_logo-uib-horizontal_transparent.svg"
   inkscape:export-filename="aaa.png"
   inkscape:export-xdpi="96"
   inkscape:export-ydpi="96"
   inkscape:version="1.4 (e7c3feb1, 2024-10-09)"
   xmlns:inkscape="http://www.inkscape.org/namespaces/inkscape"
   xmlns:sodipodi="http://sodipodi.sourceforge.net/DTD/sodipodi-0.dtd"
   xmlns="http://www.w3.org/2000/svg"
   xmlns:svg="http://www.w3.org/2000/svg">
  <defs
     id="defs34" />
  <sodipodi:namedview
     id="namedview34"
     pagecolor="#ffffff"
     bordercolor="#000000"
     borderopacity="0.25"
     inkscape:showpageshadow="2"
     inkscape:pageopacity="0.0"
     inkscape:pagecheckerboard="0"
     inkscape:deskcolor="#d1d1d1"
     inkscape:document-units="pt"
     inkscape:zoom="0.17707151"
     inkscape:cx="1815.6506"
     inkscape:cy="-129.89103"
     inkscape:window-width="1728"
     inkscape:window-height="1051"
     inkscape:window-x="1920"
     inkscape:window-y="38"
     inkscape:window-maximized="1"
     inkscape:current-layer="g34" />
  <metadata
     id="metadata1">
Created by potrace 1.16, written by Peter Selinger 2001-2019
</metadata>
  <g
     transform="translate(0.000000,881.000000) scale(0.100000,-0.100000)"
     fill="#000000"
     stroke="none"
     id="g34">
    <path
       d="M4235 8792 c-33 -10 -94 -35 -135 -57 -72 -37 -160 -124 -2031 -1994 -1924 -1924 -1957 -1957 -1997 -2036 -61 -121 -75 -187 -69 -330 6 -144 27 -213 98 -319 36 -53 543 -566 1991 -2012 1814 -1812 1948 -1943 2013 -1976 109 -56 163 -68 301 -68 147 0 242 25 339 89 40 27 721 702 2011 1993 1520 1521 1958 1965 1982 2008 71 128 97 301 68 440 -9 41 -34 113 -57 160 l-41 85 -1942 1943 c-1445 1447 -1959 1955 -2012 1991 -110 74 -174 93 -329 97 -103 3 -142 0 -190 -14z m350 -2048 c191 -37 367 -142 486 -291 105 -132 159 -268 159 -403 0 -107 -7 -112 -68 -51 -230 230 -702 336 -1078 241 -44 -11 -120 -40 -169 -64 -88 -43 -133 -82 -223 -191 -18 -22 -28 -26 -50 -21 -85 21 -82 144 9 314 78 146 192 271 327 359 183 120 366 152 607 107z m-1795 -1411 l0 -52 -86 -28 -85 -27 4 -626 c3 -604 4 -628 25 -707 54 -204 144 -297 313 -324 79 -13 193 3 263 36 101 48 179 157 216 301 33 129 41 303 38 823 l-3 495 -50 12 c-27 7 -85 20 -127 29 l-78 17 0 52 0 51 330 0 330 0 0 -52 0 -51 -119 -28 -119 -27 -5 -596 c-4 -555 -5 -602 -24 -686 -69 -302 -217 -475 -463 -542 -99 -27 -329 -24 -433 5 -283 80 -433 278 -476 627 -7 56 -11 301 -11 641 l0 551 -90 27 -90 28 0 52 0 51 370 0 370 0 0 -52z m2020 0 l0 -52 -92 -29 -93 -28 0 -828 0 -828 90 -28 90 -27 3 -54 3 -54 -406 0 -405 0 0 52 0 52 100 32 100 31 -2 825 -3 826 -40 13 c-22 7 -66 20 -97 29 l-58 16 0 52 0 52 405 0 405 0 0 -52z m1246 35 c213 -51 336 -140 390 -283 14 -37 19 -76 19 -150 0 -87 -4 -107 -26 -156 -51 -109 -151 -192 -294 -244 l-74 -27 80 -28 c194 -67 323 -187 380 -351 31 -91 32 -246 2 -344 -27 -86 -85 -178 -144 -229 -57 -49 -184 -109 -279 -133 -68 -16 -124 -18 -607 -18 l-533 0 0 52 0 52 53 15 c28 8 73 20 100 27 l47 11 0 833 0 834 -52 15 c-29 8 -74 20 -100 27 l-48 11 0 52 0 51 508 0 c440 0 516 -3 578 -17z m-1539 -2510 c5 -7 22 -58 37 -113 31 -113 90 -242 136 -298 17 -20 53 -49 78 -65 42 -24 57 -27 132 -26 100 0 170 22 385 121 l140 64 22 -28 c15 -19 23 -42 23 -69 0 -175 -432 -423 -745 -426 -155 -2 -243 39 -291 138 -23 48 -28 70 -28 141 -1 45 -3 83 -6 83 -14 0 -139 -122 -206 -201 -93 -110 -142 -141 -214 -137 l-52 3 -73 193 c-40 107 -75 196 -78 198 -10 10 -77 -84 -132 -186 -65 -120 -113 -190 -130 -190 -18 0 -73 62 -89 102 -45 107 16 228 241 473 71 78 137 152 146 165 16 24 17 24 31 5 8 -11 41 -69 73 -128 155 -287 162 -295 230 -233 40 35 56 59 186 257 98 150 154 197 184 157z"
       id="path1"
       style="fill:#0060a8;fill-opacity:1" />
    <path
       d="M5590 4906 l0 -346 68 0 c166 1 281 39 326 108 37 56 49 116 49 237 0 125 -22 200 -74 260 -52 59 -108 78 -246 83 l-123 4 0 -346z"
       id="path2"
       style="fill:#0060a8;fill-opacity:1" />
    <path
       d="M5590 3985 l0 -445 128 0 c142 0 200 12 262 55 88 61 131 166 138 335 5 135 -7 204 -49 289 -70 139 -211 211 -416 211 l-63 0 0 -445z"
       id="path3"
       style="fill:#0060a8;fill-opacity:1" />
    <path
       d="M10460 4405 l0 -4405 55 0 55 0 0 4405 0 4405 -55 0 -55 0 0 -4405z"
       id="path4"
       style="fill:#0060a8;fill-opacity:1" />
    <path
       d="M16417 6584 c-109 -34 -175 -146 -165 -284 12 -168 133 -261 319 -248 163 12 259 113 259 274 0 126 -67 227 -171 258 -65 20 -178 19 -242 0z"
       id="path5" />
    <path
       d="M23097 6586 c-104 -38 -163 -115 -174 -229 -13 -141 59 -257 182 -292 130 -38 282 0 345 87 40 55 53 108 48 198 -7 118 -58 194 -155 230 -64 24 -187 26 -246 6z"
       id="path6" />
    <path
       d="M13855 6500 c-126 -21 -244 -41 -262 -45 l-33 -6 0 -743 c0 -452 -4 -764 -10 -796 -25 -134 -103 -235 -211 -275 -72 -27 -248 -28 -331 -2 -73 22 -146 81 -181 145 -56 102 -57 119 -57 945 l0 757 -280 0 -280 0 0 -762 c0 -784 4 -870 41 -1017 51 -201 179 -365 350 -449 176 -87 443 -126 709 -103 277 23 448 89 586 226 96 95 151 194 192 343 l27 97 3 863 c3 822 2 862 -15 861 -10 -1 -121 -18 -248 -39z"
       id="path7" />
    <path
       d="M24148 6291 c-125 -15 -231 -30 -234 -34 -4 -4 -20 -96 -36 -204 -15 -108 -30 -198 -31 -200 -2 -2 -42 -11 -88 -20 -46 -9 -86 -17 -88 -19 -5 -5 -60 -236 -61 -256 0 -16 12 -18 120 -18 l119 0 3 -547 c3 -547 3 -548 26 -605 44 -109 153 -200 273 -227 67 -16 250 -13 337 5 126 26 307 109 335 154 6 11 -10 57 -58 165 -37 83 -68 151 -70 153 -1 2 -31 -12 -66 -29 -70 -36 -144 -48 -178 -29 -49 26 -51 48 -51 520 l0 440 190 0 190 0 0 155 0 155 -190 0 -190 0 0 235 c0 182 -3 235 -12 234 -7 -1 -115 -13 -240 -28z"
       id="path8" />
    <path
       d="M26915 6289 c-126 -15 -231 -28 -231 -28 -1 -1 -14 -93 -29 -205 l-28 -205 -46 -10 c-25 -5 -67 -12 -92 -16 l-46 -7 -28 -126 c-15 -70 -30 -133 -32 -139 -4 -10 24 -13 121 -13 l125 0 3 -552 3 -553 27 -58 c38 -81 77 -126 140 -164 74 -45 154 -63 273 -63 113 0 189 11 285 42 121 39 240 109 240 142 0 18 -114 283 -129 299 -4 4 -33 -7 -64 -24 -34 -18 -78 -33 -110 -36 -47 -5 -57 -2 -83 20 l-29 25 -3 461 -3 461 186 0 185 0 0 155 0 155 -185 0 -185 0 0 235 c0 218 -1 235 -17 234 -10 -1 -121 -14 -248 -30z"
       id="path9" />
    <path
       d="M14640 5864 c-91 -19 -189 -39 -217 -45 l-53 -10 0 -805 0 -804 285 0 285 0 0 561 0 560 52 55 c71 75 159 118 229 112 57 -6 95 -30 124 -79 19 -33 20 -55 23 -621 l3 -588 284 0 285 0 0 633 c0 522 -3 643 -15 695 -40 169 -147 282 -323 340 -65 21 -97 25 -207 26 -110 1 -141 -3 -205 -22 -88 -28 -166 -67 -235 -116 l-50 -36 -42 90 c-23 49 -45 90 -50 89 -4 -1 -82 -16 -173 -35z"
       id="path10" />
    <path
       d="M16580 5864 c-113 -18 -235 -38 -272 -45 l-68 -11 0 -804 0 -804 285 0 285 0 0 850 c0 674 -3 850 -12 849 -7 -1 -105 -16 -218 -35z"
       id="path11" />
    <path
       d="M17200 5854 c-140 -25 -255 -46 -256 -47 -1 -1 120 -363 268 -804 l271 -803 281 0 282 0 306 808 c169 444 310 815 313 825 7 16 -10 17 -268 17 l-275 0 -19 -62 c-210 -687 -289 -936 -294 -930 -4 4 -80 240 -170 525 -90 284 -168 517 -174 516 -5 0 -125 -21 -265 -45z"
       id="path12" />
    <path
       d="M19340 5894 c-14 -2 -56 -9 -95 -15 -245 -40 -441 -181 -549 -396 -73 -146 -107 -371 -87 -588 14 -164 39 -266 90 -370 89 -180 228 -289 436 -345 103 -28 378 -38 522 -20 149 18 437 98 501 139 11 7 -1 46 -58 187 -40 99 -74 182 -76 185 -2 4 -39 -8 -81 -27 -207 -88 -467 -113 -588 -54 -96 47 -161 148 -172 272 l-6 58 469 2 469 3 28 95 c29 93 29 97 18 210 -21 223 -81 372 -195 485 -125 124 -255 173 -476 180 -69 2 -136 2 -150 -1z m163 -368 c86 -31 122 -99 142 -268 l6 -58 -232 0 -232 0 6 58 c21 203 159 321 310 268z"
       id="path13" />
    <path
       d="M20655 5859 c-121 -21 -235 -41 -252 -44 l-33 -6 0 -804 0 -805 285 0 285 0 0 552 0 551 25 33 c32 41 101 90 157 110 55 20 171 20 225 0 l42 -15 66 200 c37 110 65 206 62 213 -3 7 -31 21 -64 32 -80 25 -218 26 -296 0 -71 -23 -169 -90 -213 -146 -32 -40 -33 -41 -39 -18 -3 12 -6 59 -7 102 -2 44 -7 80 -13 82 -5 1 -109 -15 -230 -37z"
       id="path14" />
    <path
       d="M22032 5890 c-169 -24 -303 -81 -394 -168 -107 -101 -154 -251 -129 -403 16 -99 49 -167 113 -236 71 -75 165 -135 333 -212 233 -107 295 -159 280 -238 -28 -153 -292 -156 -574 -7 -46 24 -85 43 -86 42 -1 -2 -28 -82 -60 -178 -32 -96 -60 -181 -63 -188 -11 -31 226 -111 410 -138 142 -21 411 -15 503 10 288 80 433 288 397 571 -29 218 -118 308 -442 440 -227 92 -280 132 -280 210 0 55 33 97 96 121 93 36 307 -3 453 -82 35 -19 64 -34 65 -32 7 10 126 356 126 366 0 27 -125 73 -279 102 -120 24 -369 34 -469 20z"
       id="path15" />
    <path
       d="M23250 5864 c-113 -18 -235 -38 -272 -45 l-68 -11 0 -804 0 -804 285 0 285 0 0 850 c0 674 -3 850 -12 849 -7 -1 -105 -16 -218 -35z"
       id="path16" />
    <path
       d="M25460 5890 c-108 -14 -223 -38 -309 -67 -94 -30 -220 -90 -227 -107 -8 -21 130 -341 146 -339 8 1 56 19 105 41 140 61 206 76 325 77 206 0 270 -57 270 -242 l0 -73 -60 0 c-97 0 -259 -21 -360 -46 -201 -50 -355 -158 -424 -295 -46 -92 -59 -162 -54 -289 6 -133 35 -205 112 -279 94 -88 189 -121 352 -121 173 0 302 45 434 152 48 38 65 47 71 37 5 -8 9 -17 9 -21 0 -4 9 -32 21 -63 l20 -55 220 0 219 0 0 613 c0 666 0 669 -57 787 -15 32 -54 82 -92 120 -118 118 -263 168 -506 175 -77 2 -174 0 -215 -5z m310 -1135 l0 -136 -49 -49 c-84 -84 -170 -115 -244 -86 -60 23 -82 63 -81 147 1 130 86 217 244 248 25 5 64 9 88 10 l42 1 0 -135z"
       id="path17" />
    <path
       d="M12995 3620 c-27 -5 -78 -9 -111 -9 -102 -2 -124 -9 -124 -42 0 -30 0 -30 93 -50 l57 -12 0 -183 0 -182 -52 20 c-210 80 -484 -19 -586 -210 -107 -200 -71 -516 74 -657 64 -63 136 -88 249 -88 105 0 171 21 259 83 l56 39 0 -64 c0 -36 3 -65 8 -65 4 0 52 7 107 15 55 8 126 15 157 15 75 0 88 6 88 41 0 31 1 30 -125 46 l-60 8 -3 653 c-2 613 -3 652 -20 651 -9 -1 -39 -5 -67 -9z m-240 -511 c23 -7 57 -28 81 -53 67 -66 74 -105 74 -398 l0 -248 -46 -30 c-137 -86 -274 -86 -368 1 -164 150 -146 570 28 687 76 51 149 64 231 41z"
       id="path18" />
    <path
       d="M14995 3620 c-27 -5 -78 -9 -111 -9 -102 -2 -124 -9 -124 -42 0 -31 2 -32 98 -50 l62 -12 0 -592 0 -593 -90 -17 -90 -17 0 -32 0 -31 255 0 255 0 0 32 c0 34 11 30 -142 59 l-28 6 0 654 c0 617 -1 654 -17 653 -10 -1 -40 -5 -68 -9z"
       id="path19" />
    <path
       d="M18375 3620 c-27 -5 -75 -9 -106 -9 -97 -2 -119 -9 -119 -42 0 -30 15 -37 113 -55 l37 -6 0 -593 0 -593 -27 -6 c-154 -29 -143 -25 -143 -59 l0 -32 250 0 250 0 0 32 c0 34 -1 34 -132 58 l-38 7 0 654 c0 617 -1 654 -17 653 -10 -1 -40 -5 -68 -9z"
       id="path20" />
    <path
       d="M18955 3620 c-27 -5 -78 -9 -111 -9 -102 -2 -124 -9 -124 -42 0 -30 0 -30 93 -50 l57 -12 0 -593 0 -593 -57 -11 c-32 -6 -70 -13 -85 -16 -24 -5 -28 -11 -28 -37 l0 -32 255 0 255 0 0 31 0 32 -90 17 -90 17 0 654 c0 517 -3 654 -12 653 -7 -1 -35 -5 -63 -9z"
       id="path21" />
    <path
       d="M23865 3620 c-27 -5 -78 -9 -111 -9 -102 -2 -124 -9 -124 -42 0 -31 2 -32 98 -50 l62 -12 0 -592 0 -592 -62 -12 c-127 -24 -118 -20 -118 -54 l0 -32 255 0 255 0 0 32 c0 26 -4 32 -27 37 -16 3 -54 10 -85 16 l-58 11 0 655 c0 617 -1 654 -17 653 -10 -1 -40 -5 -68 -9z"
       id="path22" />
    <path
       d="M17500 3514 c0 -31 1 -32 68 -44 37 -6 75 -14 85 -17 16 -4 17 -40 17 -568 l0 -563 -27 -6 c-154 -29 -143 -25 -143 -59 l0 -32 255 0 255 0 0 32 c0 26 -4 32 -27 37 -16 3 -54 10 -85 16 l-58 11 0 564 c0 528 1 564 18 569 9 3 47 10 85 17 66 11 67 11 67 43 l0 31 -255 0 -255 0 0 -31z"
       id="path23" />
    <path
       d="M21520 3514 c0 -31 1 -32 68 -44 37 -6 75 -14 85 -17 16 -4 17 -40 17 -568 l0 -563 -37 -7 c-132 -24 -133 -24 -133 -58 l0 -32 330 -3 c266 -2 343 1 395 13 161 37 256 131 286 283 35 180 -46 334 -217 414 l-65 30 58 28 c121 57 173 132 173 251 0 128 -50 207 -164 260 -93 43 -165 50 -496 47 l-300 -3 0 -31z m655 -78 c87 -37 125 -101 125 -211 0 -165 -72 -216 -322 -231 l-118 -7 0 238 0 237 138 -4 c100 -3 148 -9 177 -22z m-85 -536 c183 -29 280 -146 268 -322 -10 -136 -87 -231 -208 -257 -28 -6 -105 -11 -170 -11 l-120 0 0 300 0 300 83 0 c45 0 111 -5 147 -10z"
       id="path24" />
    <path
       d="M13710 3179 c-69 -14 -165 -65 -220 -119 -146 -142 -182 -420 -82 -634 78 -167 267 -253 468 -213 86 18 199 69 254 115 32 27 34 31 22 57 -7 15 -18 25 -25 22 -183 -81 -322 -96 -437 -46 -113 49 -180 174 -180 334 l0 55 312 2 312 3 14 65 c28 123 -14 249 -102 310 -78 53 -213 73 -336 49z m175 -78 c73 -33 104 -91 105 -198 l0 -61 -37 -6 c-65 -9 -423 -29 -429 -24 -7 7 33 123 53 157 77 124 205 179 308 132z"
       id="path25" />
    <path
       d="M15685 3177 c-165 -42 -286 -163 -330 -328 -17 -64 -19 -237 -4 -311 68 -327 429 -437 741 -225 48 32 58 55 39 86 -7 11 -18 9 -62 -11 -115 -54 -275 -69 -375 -35 -127 44 -204 178 -204 360 l0 37 314 0 313 0 12 57 c15 77 14 130 -5 192 -20 69 -89 140 -159 165 -64 23 -214 30 -280 13z m172 -68 c72 -27 113 -98 113 -198 l0 -69 -37 -6 c-59 -8 -409 -29 -420 -25 -17 6 22 120 60 175 72 107 191 159 284 123z"
       id="path26" />
    <path
       d="M16514 3179 c-69 -16 -145 -69 -179 -123 -28 -46 -30 -56 -30 -142 0 -86 2 -95 30 -135 37 -51 112 -95 251 -145 56 -20 116 -44 133 -55 68 -41 89 -124 52 -205 -43 -94 -168 -127 -292 -77 -42 16 -49 36 -49 139 0 68 -15 94 -54 94 -20 0 -24 -10 -49 -123 -15 -67 -27 -127 -27 -133 0 -6 15 -17 33 -26 98 -47 312 -56 410 -19 76 30 135 76 172 135 24 40 30 62 34 123 8 162 -53 224 -304 308 -61 20 -125 46 -143 57 -91 56 -81 192 19 246 37 20 54 23 110 19 36 -2 78 -10 95 -18 28 -14 29 -17 37 -113 4 -55 8 -100 10 -101 1 -1 16 -5 33 -8 l31 -6 31 127 c22 93 27 129 19 135 -62 40 -284 68 -373 46z"
       id="path27" />
    <path
       d="M19651 3180 c-74 -16 -168 -66 -220 -118 -224 -224 -172 -687 92 -816 81 -40 195 -52 293 -33 86 18 199 69 254 115 32 27 34 31 22 57 -7 15 -18 25 -25 22 -183 -81 -322 -96 -437 -46 -111 49 -180 172 -180 327 l0 62 310 0 309 0 11 38 c30 107 19 201 -33 279 -24 36 -48 56 -99 82 -59 30 -77 34 -160 37 -51 2 -113 -1 -137 -6z m175 -79 c68 -31 104 -100 104 -202 l0 -58 -42 -5 c-52 -7 -350 -26 -396 -26 -30 0 -32 2 -26 28 18 72 49 136 91 182 84 93 179 122 269 81z"
       id="path28" />
    <path
       d="M20460 3175 c-149 -42 -232 -170 -202 -314 22 -104 74 -147 273 -222 158 -59 201 -91 213 -152 14 -76 -26 -156 -97 -194 -45 -24 -161 -22 -213 3 l-39 19 -8 100 c-5 55 -9 101 -11 102 -1 2 -16 6 -33 9 l-31 6 -27 -118 c-15 -66 -29 -126 -31 -136 -7 -24 87 -56 205 -69 126 -15 227 3 311 55 151 93 188 297 74 409 -44 44 -99 72 -226 116 -140 48 -170 62 -197 97 -28 36 -29 116 -1 162 37 60 140 88 230 62 60 -17 62 -20 69 -126 l6 -98 30 -8 c16 -4 33 -4 36 0 13 14 61 244 53 252 -5 5 -38 18 -74 30 -86 29 -234 36 -310 15z"
       id="path29" />
    <path
       d="M22981 3170 c-83 -22 -175 -71 -240 -127 l-43 -38 46 -93 c25 -50 50 -92 55 -92 6 0 21 4 35 10 23 9 26 15 26 62 0 29 3 76 6 104 6 47 10 54 46 74 23 13 63 24 96 27 77 6 127 -23 162 -92 23 -45 25 -64 28 -197 l4 -148 -36 0 c-19 0 -84 7 -143 16 -59 9 -129 14 -155 11 -167 -20 -244 -191 -163 -364 66 -144 281 -160 440 -34 27 22 52 38 56 36 3 -3 9 -26 13 -52 l6 -48 145 0 145 0 0 32 c0 33 -3 36 -70 48 -75 14 -68 -21 -72 358 l-3 342 -26 56 c-56 120 -176 156 -358 109z m219 -659 l0 -100 -34 -26 c-80 -61 -231 -86 -285 -49 -47 33 -65 122 -37 189 25 59 53 69 205 76 75 3 139 6 144 7 4 1 7 -43 7 -97z"
       id="path30" />
    <path
       d="M24540 3172 c-153 -41 -262 -147 -311 -302 -41 -128 -26 -338 32 -452 89 -174 306 -255 520 -193 60 17 156 67 197 102 29 24 33 32 27 56 -8 32 -7 32 -101 -7 -34 -14 -97 -31 -139 -37 -155 -21 -274 22 -342 123 -35 53 -63 158 -63 237 l0 51 313 0 314 0 13 69 c31 164 -35 299 -169 347 -70 24 -213 28 -291 6z m187 -63 c72 -27 112 -100 113 -201 l0 -67 -42 -5 c-51 -6 -350 -26 -395 -26 l-32 0 16 53 c38 131 113 217 213 248 37 11 95 10 127 -2z"
       id="path31" />
    <path
       d="M25468 3174 c-32 -7 -88 -29 -125 -48 -69 -34 -163 -109 -163 -129 0 -6 19 -48 43 -94 41 -81 43 -83 72 -77 17 3 31 7 32 8 1 1 6 49 10 106 l8 105 54 28 c88 44 169 32 224 -32 38 -46 47 -90 47 -243 l0 -138 -33 0 c-19 0 -80 7 -138 16 -157 24 -231 10 -291 -53 -39 -41 -58 -94 -58 -164 0 -78 15 -129 52 -174 48 -57 100 -79 188 -79 90 1 158 27 236 91 l52 42 8 -56 9 -56 148 -1 147 -1 0 31 c0 32 -1 32 -75 49 l-75 16 0 328 c0 380 -4 408 -74 477 -24 25 -58 46 -81 53 -53 14 -146 13 -217 -5z m198 -769 c-2 -6 -32 -26 -67 -44 -47 -26 -79 -35 -130 -39 -83 -6 -124 9 -146 52 -34 64 -12 179 40 208 13 8 75 15 162 18 l140 5 3 -94 c1 -52 1 -100 -2 -106z"
       id="path32" />
    <path
       d="M26305 3180 c-33 -4 -90 -8 -127 -9 l-68 -1 0 -34 c0 -34 1 -35 58 -46 31 -6 65 -14 75 -16 16 -5 17 -32 17 -379 l0 -373 -27 -6 c-154 -29 -143 -25 -143 -59 l0 -32 270 0 270 0 0 31 c0 35 9 32 -167 59 l-43 7 0 303 0 303 50 55 c51 56 121 97 164 97 28 0 31 -11 42 -117 l7 -73 36 0 37 0 37 128 c21 70 37 130 37 133 0 14 -83 39 -129 39 -91 0 -183 -49 -248 -132 l-33 -41 0 87 0 86 -27 -1 c-16 -1 -55 -5 -88 -9z"
       id="path33" />
    <path
       d="M27153 3175 c-137 -38 -206 -127 -205 -264 1 -140 55 -191 301 -282 57 -22 119 -50 137 -64 84 -64 62 -214 -40 -267 -57 -30 -164 -30 -223 1 -42 21 -43 22 -43 75 0 29 -3 74 -6 99 -6 41 -10 47 -36 52 -16 4 -31 5 -33 3 -2 -1 -16 -60 -33 -131 -20 -90 -26 -130 -18 -136 23 -18 114 -43 197 -53 257 -30 449 96 449 295 0 73 -20 127 -62 169 -47 47 -87 67 -231 117 -63 22 -130 47 -147 56 -67 35 -91 135 -50 203 37 60 140 88 230 62 61 -17 63 -21 70 -125 4 -53 9 -98 11 -99 2 -2 18 -7 35 -10 l30 -7 28 121 c15 67 25 128 22 135 -17 45 -281 79 -383 50z"
       id="path34" />
  </g>
</svg>
